<?xml version="1.0" encoding="UTF-8"?>
<svg xmlns="http://www.w3.org/2000/svg" version="1.1" width="128" height="128" viewBox="0 0 128 128"><rect x="0" y="0" width="128" height="128" fill="#ffffff"/><g transform="scale(4.414)"><g transform="translate(0,0)"><path fill-rule="evenodd" d="M8 0L8 1L9 1L9 0ZM12 0L12 1L10 1L10 4L8 4L8 5L9 5L9 6L8 6L8 8L9 8L9 6L10 6L10 8L11 8L11 9L9 9L9 10L8 10L8 11L7 11L7 10L5 10L5 9L7 9L7 8L5 8L5 9L4 9L4 11L3 11L3 10L2 10L2 9L0 9L0 10L2 10L2 11L3 11L3 12L2 12L2 14L3 14L3 15L7 15L7 16L6 16L6 17L7 17L7 18L5 18L5 16L4 16L4 17L3 17L3 18L2 18L2 15L1 15L1 14L0 14L0 15L1 15L1 16L0 16L0 21L1 21L1 19L3 19L3 21L7 21L7 20L4 20L4 18L5 18L5 19L8 19L8 17L9 17L9 18L10 18L10 15L9 15L9 16L8 16L8 14L9 14L9 12L8 12L8 11L9 11L9 10L10 10L10 11L13 11L13 13L15 13L15 14L14 14L14 15L13 15L13 14L11 14L11 15L13 15L13 16L11 16L11 18L13 18L13 20L12 20L12 19L11 19L11 20L12 20L12 21L13 21L13 20L17 20L17 22L18 22L18 25L19 25L19 26L16 26L16 25L17 25L17 24L16 24L16 22L15 22L15 21L14 21L14 25L12 25L12 24L13 24L13 23L12 23L12 22L10 22L10 23L12 23L12 24L9 24L9 23L8 23L8 24L9 24L9 27L10 27L10 28L9 28L9 29L13 29L13 28L14 28L14 26L15 26L15 27L18 27L18 28L15 28L15 29L18 29L18 28L20 28L20 27L21 27L21 28L22 28L22 29L23 29L23 28L22 28L22 27L24 27L24 29L25 29L25 28L26 28L26 29L27 29L27 27L28 27L28 28L29 28L29 27L28 27L28 25L25 25L25 24L26 24L26 23L25 23L25 22L28 22L28 21L27 21L27 20L28 20L28 19L29 19L29 17L28 17L28 16L29 16L29 15L28 15L28 16L27 16L27 15L24 15L24 14L26 14L26 11L25 11L25 13L24 13L24 14L23 14L23 12L24 12L24 10L26 10L26 9L27 9L27 10L28 10L28 9L29 9L29 8L28 8L28 9L27 9L27 8L26 8L26 9L25 9L25 8L24 8L24 9L23 9L23 8L22 8L22 9L23 9L23 10L21 10L21 11L20 11L20 10L19 10L19 9L20 9L20 8L19 8L19 6L18 6L18 5L21 5L21 3L20 3L20 4L18 4L18 3L14 3L14 1L16 1L16 0L14 0L14 1L13 1L13 0ZM17 0L17 1L18 1L18 2L19 2L19 1L20 1L20 2L21 2L21 0L19 0L19 1L18 1L18 0ZM8 2L8 3L9 3L9 2ZM11 2L11 4L10 4L10 6L11 6L11 8L12 8L12 9L11 9L11 10L13 10L13 11L17 11L17 9L19 9L19 8L17 8L17 7L18 7L18 6L17 6L17 4L16 4L16 6L15 6L15 4L14 4L14 3L13 3L13 2ZM11 5L11 6L12 6L12 7L13 7L13 6L12 6L12 5ZM14 6L14 7L15 7L15 8L13 8L13 9L14 9L14 10L15 10L15 9L16 9L16 7L17 7L17 6L16 6L16 7L15 7L15 6ZM20 6L20 7L21 7L21 6ZM18 10L18 12L19 12L19 13L17 13L17 12L16 12L16 13L17 13L17 14L16 14L16 16L18 16L18 17L19 17L19 18L20 18L20 19L19 19L19 22L20 22L20 20L21 20L21 19L23 19L23 20L24 20L24 19L25 19L25 21L26 21L26 20L27 20L27 19L28 19L28 17L26 17L26 18L22 18L22 17L25 17L25 16L24 16L24 15L23 15L23 16L22 16L22 17L21 17L21 15L22 15L22 13L21 13L21 12L22 12L22 11L21 11L21 12L19 12L19 10ZM0 11L0 12L1 12L1 11ZM4 11L4 12L5 12L5 13L6 13L6 14L8 14L8 13L6 13L6 12L7 12L7 11L6 11L6 12L5 12L5 11ZM11 12L11 13L12 13L12 12ZM27 12L27 13L28 13L28 14L29 14L29 13L28 13L28 12ZM19 13L19 14L17 14L17 15L18 15L18 16L19 16L19 14L20 14L20 15L21 15L21 13ZM14 15L14 16L13 16L13 17L14 17L14 16L15 16L15 15ZM15 17L15 18L16 18L16 17ZM26 18L26 19L27 19L27 18ZM9 19L9 20L10 20L10 19ZM17 19L17 20L18 20L18 19ZM8 21L8 22L9 22L9 21ZM21 21L21 24L24 24L24 21ZM22 22L22 23L23 23L23 22ZM27 23L27 24L28 24L28 23ZM10 25L10 27L11 27L11 28L13 28L13 27L11 27L11 26L12 26L12 25ZM21 25L21 26L23 26L23 25ZM24 25L24 26L25 26L25 27L26 27L26 26L25 26L25 25ZM0 0L0 7L7 7L7 0ZM1 1L1 6L6 6L6 1ZM2 2L2 5L5 5L5 2ZM22 0L22 7L29 7L29 0ZM23 1L23 6L28 6L28 1ZM24 2L24 5L27 5L27 2ZM0 22L0 29L7 29L7 22ZM1 23L1 28L6 28L6 23ZM2 24L2 27L5 27L5 24Z" fill="#000000"/></g></g></svg>
