<?xml version="1.0" encoding="UTF-8"?>
<svg xmlns="http://www.w3.org/2000/svg" version="1.1" width="128" height="128" viewBox="0 0 128 128"><rect x="0" y="0" width="128" height="128" fill="#ffffff"/><g transform="scale(4.414)"><g transform="translate(0,0)"><path fill-rule="evenodd" d="M11 0L11 1L10 1L10 2L9 2L9 4L8 4L8 5L9 5L9 6L8 6L8 8L6 8L6 9L7 9L7 10L6 10L6 11L5 11L5 10L3 10L3 9L4 9L4 8L2 8L2 11L1 11L1 9L0 9L0 11L1 11L1 13L0 13L0 15L1 15L1 18L0 18L0 19L1 19L1 18L2 18L2 20L1 20L1 21L3 21L3 18L4 18L4 19L5 19L5 21L7 21L7 20L8 20L8 19L7 19L7 18L10 18L10 19L9 19L9 21L8 21L8 23L9 23L9 24L10 24L10 25L8 25L8 27L9 27L9 28L10 28L10 29L12 29L12 27L13 27L13 28L14 28L14 29L17 29L17 27L18 27L18 29L19 29L19 28L20 28L20 29L24 29L24 28L26 28L26 27L27 27L27 29L28 29L28 27L29 27L29 26L28 26L28 25L29 25L29 23L28 23L28 22L29 22L29 20L28 20L28 19L26 19L26 18L25 18L25 19L26 19L26 20L24 20L24 17L26 17L26 14L27 14L27 16L28 16L28 15L29 15L29 11L28 11L28 10L29 10L29 9L28 9L28 10L27 10L27 9L25 9L25 8L24 8L24 9L23 9L23 8L21 8L21 6L20 6L20 4L19 4L19 5L15 5L15 4L14 4L14 5L15 5L15 6L14 6L14 8L13 8L13 4L11 4L11 5L9 5L9 4L10 4L10 2L12 2L12 0ZM13 0L13 2L18 2L18 3L17 3L17 4L18 4L18 3L20 3L20 2L18 2L18 1L17 1L17 0L16 0L16 1L14 1L14 0ZM9 6L9 10L8 10L8 11L6 11L6 12L7 12L7 13L5 13L5 12L4 12L4 13L5 13L5 14L3 14L3 11L2 11L2 13L1 13L1 14L2 14L2 15L4 15L4 16L5 16L5 17L4 17L4 18L5 18L5 19L6 19L6 20L7 20L7 19L6 19L6 18L7 18L7 17L6 17L6 16L7 16L7 15L9 15L9 13L10 13L10 14L11 14L11 13L10 13L10 11L9 11L9 10L13 10L13 11L11 11L11 12L12 12L12 13L16 13L16 10L15 10L15 12L14 12L14 9L18 9L18 8L19 8L19 10L20 10L20 9L21 9L21 8L20 8L20 6L19 6L19 7L18 7L18 6L17 6L17 7L16 7L16 6L15 6L15 7L16 7L16 8L14 8L14 9L13 9L13 8L12 8L12 9L10 9L10 6ZM11 6L11 7L12 7L12 6ZM17 10L17 11L18 11L18 10ZM21 10L21 12L22 12L22 13L20 13L20 14L22 14L22 15L21 15L21 17L20 17L20 15L19 15L19 14L18 14L18 12L17 12L17 16L16 16L16 14L15 14L15 16L14 16L14 17L13 17L13 14L12 14L12 15L11 15L11 16L8 16L8 17L10 17L10 18L11 18L11 17L13 17L13 18L12 18L12 19L14 19L14 21L13 21L13 20L12 20L12 21L11 21L11 22L9 22L9 23L11 23L11 26L12 26L12 24L13 24L13 25L14 25L14 26L13 26L13 27L15 27L15 28L16 28L16 27L17 27L17 26L16 26L16 25L17 25L17 24L16 24L16 25L15 25L15 24L14 24L14 23L18 23L18 24L19 24L19 25L20 25L20 26L18 26L18 27L20 27L20 26L21 26L21 28L22 28L22 27L23 27L23 28L24 28L24 27L25 27L25 26L24 26L24 25L20 25L20 23L18 23L18 21L19 21L19 22L20 22L20 21L19 21L19 19L20 19L20 20L21 20L21 19L22 19L22 18L23 18L23 16L24 16L24 15L23 15L23 14L22 14L22 13L23 13L23 11L24 11L24 10L23 10L23 11L22 11L22 10ZM25 10L25 12L24 12L24 14L25 14L25 13L26 13L26 12L28 12L28 11L26 11L26 10ZM8 11L8 12L9 12L9 11ZM19 11L19 12L20 12L20 11ZM27 13L27 14L28 14L28 13ZM5 14L5 16L6 16L6 15L7 15L7 14ZM18 15L18 17L15 17L15 19L16 19L16 21L15 21L15 22L17 22L17 21L18 21L18 19L19 19L19 18L20 18L20 19L21 19L21 18L20 18L20 17L19 17L19 15ZM17 18L17 19L18 19L18 18ZM10 19L10 20L11 20L11 19ZM21 21L21 24L24 24L24 21ZM26 21L26 22L25 22L25 24L27 24L27 25L26 25L26 26L27 26L27 27L28 27L28 26L27 26L27 25L28 25L28 24L27 24L27 23L26 23L26 22L28 22L28 21ZM12 22L12 23L14 23L14 22ZM22 22L22 23L23 23L23 22ZM9 26L9 27L10 27L10 28L11 28L11 27L10 27L10 26ZM23 26L23 27L24 27L24 26ZM0 0L0 7L7 7L7 0ZM1 1L1 6L6 6L6 1ZM2 2L2 5L5 5L5 2ZM22 0L22 7L29 7L29 0ZM23 1L23 6L28 6L28 1ZM24 2L24 5L27 5L27 2ZM0 22L0 29L7 29L7 22ZM1 23L1 28L6 28L6 23ZM2 24L2 27L5 27L5 24Z" fill="#000000"/></g></g></svg>
