<?xml version="1.0" encoding="UTF-8"?>
<svg xmlns="http://www.w3.org/2000/svg" version="1.1" width="128" height="128" viewBox="0 0 128 128"><rect x="0" y="0" width="128" height="128" fill="#ffffff"/><g transform="scale(4.414)"><g transform="translate(0,0)"><path fill-rule="evenodd" d="M11 0L11 1L10 1L10 2L9 2L9 4L8 4L8 5L9 5L9 6L8 6L8 8L6 8L6 9L5 9L5 10L3 10L3 9L4 9L4 8L2 8L2 10L3 10L3 12L2 12L2 11L1 11L1 9L0 9L0 11L1 11L1 13L3 13L3 14L5 14L5 15L2 15L2 14L0 14L0 17L1 17L1 18L0 18L0 19L1 19L1 18L3 18L3 16L5 16L5 17L8 17L8 18L6 18L6 19L5 19L5 18L4 18L4 19L3 19L3 20L1 20L1 21L3 21L3 20L4 20L4 19L5 19L5 21L7 21L7 20L6 20L6 19L8 19L8 20L9 20L9 21L8 21L8 23L10 23L10 22L11 22L11 21L12 21L12 19L13 19L13 21L14 21L14 19L13 19L13 17L12 17L12 18L10 18L10 16L11 16L11 15L12 15L12 14L13 14L13 15L14 15L14 18L15 18L15 19L16 19L16 17L17 17L17 18L18 18L18 19L17 19L17 20L15 20L15 22L17 22L17 23L15 23L15 24L14 24L14 25L13 25L13 26L16 26L16 27L18 27L18 29L19 29L19 28L20 28L20 29L24 29L24 28L26 28L26 27L27 27L27 29L28 29L28 27L29 27L29 26L28 26L28 25L29 25L29 23L28 23L28 22L29 22L29 20L28 20L28 19L26 19L26 18L25 18L25 19L26 19L26 20L24 20L24 17L26 17L26 14L27 14L27 16L28 16L28 15L29 15L29 11L28 11L28 10L29 10L29 9L28 9L28 10L27 10L27 9L25 9L25 8L24 8L24 9L23 9L23 8L21 8L21 6L20 6L20 4L19 4L19 5L15 5L15 4L12 4L12 2L11 2L11 1L12 1L12 0ZM13 0L13 2L15 2L15 3L16 3L16 2L15 2L15 0ZM17 1L17 2L18 2L18 3L17 3L17 4L18 4L18 3L20 3L20 2L18 2L18 1ZM10 2L10 4L9 4L9 5L11 5L11 2ZM13 5L13 7L14 7L14 8L15 8L15 9L13 9L13 8L12 8L12 10L13 10L13 12L11 12L11 13L10 13L10 11L9 11L9 10L10 10L10 6L9 6L9 9L8 9L8 11L9 11L9 12L7 12L7 11L6 11L6 10L7 10L7 9L6 9L6 10L5 10L5 11L6 11L6 12L7 12L7 13L5 13L5 12L4 12L4 13L5 13L5 14L7 14L7 15L6 15L6 16L7 16L7 15L9 15L9 16L10 16L10 15L11 15L11 13L13 13L13 14L14 14L14 15L15 15L15 17L16 17L16 14L14 14L14 13L15 13L15 12L14 12L14 10L15 10L15 11L16 11L16 12L17 12L17 13L18 13L18 12L17 12L17 11L18 11L18 10L16 10L16 9L18 9L18 8L19 8L19 10L20 10L20 9L21 9L21 8L20 8L20 6L19 6L19 7L18 7L18 6L17 6L17 7L16 7L16 6L15 6L15 5ZM11 6L11 7L12 7L12 6ZM14 6L14 7L15 7L15 8L16 8L16 7L15 7L15 6ZM21 10L21 12L22 12L22 13L20 13L20 14L22 14L22 15L21 15L21 17L20 17L20 15L18 15L18 14L17 14L17 15L18 15L18 17L20 17L20 18L19 18L19 19L18 19L18 21L17 21L17 22L18 22L18 23L19 23L19 24L18 24L18 25L20 25L20 26L18 26L18 27L20 27L20 26L21 26L21 28L22 28L22 27L23 27L23 28L24 28L24 27L25 27L25 26L24 26L24 25L20 25L20 23L19 23L19 22L20 22L20 21L19 21L19 20L21 20L21 19L22 19L22 18L23 18L23 16L24 16L24 15L23 15L23 14L22 14L22 13L23 13L23 11L24 11L24 10L23 10L23 11L22 11L22 10ZM25 10L25 12L24 12L24 14L25 14L25 13L26 13L26 12L28 12L28 11L26 11L26 10ZM19 11L19 12L20 12L20 11ZM27 13L27 14L28 14L28 13ZM9 14L9 15L10 15L10 14ZM1 15L1 17L2 17L2 15ZM9 18L9 19L10 19L10 20L11 20L11 19L10 19L10 18ZM9 21L9 22L10 22L10 21ZM18 21L18 22L19 22L19 21ZM21 21L21 24L24 24L24 21ZM26 21L26 22L25 22L25 24L27 24L27 25L26 25L26 26L27 26L27 27L28 27L28 26L27 26L27 25L28 25L28 24L27 24L27 23L26 23L26 22L28 22L28 21ZM12 22L12 23L14 23L14 22ZM22 22L22 23L23 23L23 22ZM10 24L10 25L8 25L8 27L9 27L9 28L10 28L10 29L11 29L11 28L14 28L14 29L17 29L17 28L15 28L15 27L12 27L12 26L10 26L10 25L11 25L11 24ZM9 26L9 27L10 27L10 28L11 28L11 27L10 27L10 26ZM23 26L23 27L24 27L24 26ZM0 0L0 7L7 7L7 0ZM1 1L1 6L6 6L6 1ZM2 2L2 5L5 5L5 2ZM22 0L22 7L29 7L29 0ZM23 1L23 6L28 6L28 1ZM24 2L24 5L27 5L27 2ZM0 22L0 29L7 29L7 22ZM1 23L1 28L6 28L6 23ZM2 24L2 27L5 27L5 24Z" fill="#000000"/></g></g></svg>
