<?xml version="1.0" encoding="UTF-8"?>
<svg xmlns="http://www.w3.org/2000/svg" version="1.1" width="128" height="128" viewBox="0 0 128 128"><rect x="0" y="0" width="128" height="128" fill="#ffffff"/><g transform="scale(4.414)"><g transform="translate(0,0)"><path fill-rule="evenodd" d="M8 0L8 1L9 1L9 3L8 3L8 4L10 4L10 5L11 5L11 4L10 4L10 2L11 2L11 3L12 3L12 4L13 4L13 5L12 5L12 7L11 7L11 6L10 6L10 7L9 7L9 6L8 6L8 7L9 7L9 8L8 8L8 9L7 9L7 8L4 8L4 9L3 9L3 8L2 8L2 11L1 11L1 14L0 14L0 15L1 15L1 16L2 16L2 17L3 17L3 18L6 18L6 19L5 19L5 21L7 21L7 20L6 20L6 19L8 19L8 22L9 22L9 21L10 21L10 22L11 22L11 23L10 23L10 27L9 27L9 26L8 26L8 27L9 27L9 28L10 28L10 27L11 27L11 28L12 28L12 29L13 29L13 28L12 28L12 26L13 26L13 27L14 27L14 29L15 29L15 28L16 28L16 27L17 27L17 29L18 29L18 27L20 27L20 29L22 29L22 28L24 28L24 29L25 29L25 28L24 28L24 27L25 27L25 25L26 25L26 26L27 26L27 25L28 25L28 24L27 24L27 25L26 25L26 24L25 24L25 20L26 20L26 19L29 19L29 16L28 16L28 15L29 15L29 13L27 13L27 14L26 14L26 15L27 15L27 16L28 16L28 17L27 17L27 18L25 18L25 20L24 20L24 18L23 18L23 16L24 16L24 12L25 12L25 11L24 11L24 10L23 10L23 9L22 9L22 8L20 8L20 7L21 7L21 6L20 6L20 3L21 3L21 0L20 0L20 1L19 1L19 2L20 2L20 3L18 3L18 4L16 4L16 5L18 5L18 7L19 7L19 11L18 11L18 10L17 10L17 8L16 8L16 10L15 10L15 6L14 6L14 5L15 5L15 4L14 4L14 3L15 3L15 2L13 2L13 3L12 3L12 1L14 1L14 0L11 0L11 1L10 1L10 0ZM16 0L16 3L17 3L17 2L18 2L18 1L17 1L17 0ZM13 6L13 8L12 8L12 9L11 9L11 10L10 10L10 9L8 9L8 10L7 10L7 9L4 9L4 11L2 11L2 13L3 13L3 15L4 15L4 16L3 16L3 17L4 17L4 16L5 16L5 14L7 14L7 13L8 13L8 12L9 12L9 10L10 10L10 13L9 13L9 14L10 14L10 15L11 15L11 12L12 12L12 13L13 13L13 15L14 15L14 14L15 14L15 17L12 17L12 18L13 18L13 19L11 19L11 17L8 17L8 18L10 18L10 19L9 19L9 20L11 20L11 21L12 21L12 20L13 20L13 21L14 21L14 22L12 22L12 24L11 24L11 25L12 25L12 24L13 24L13 23L14 23L14 25L13 25L13 26L15 26L15 27L16 27L16 26L17 26L17 23L16 23L16 22L15 22L15 21L16 21L16 20L17 20L17 19L18 19L18 20L19 20L19 21L17 21L17 22L18 22L18 23L19 23L19 24L18 24L18 25L19 25L19 26L20 26L20 27L21 27L21 28L22 28L22 27L23 27L23 26L24 26L24 25L22 25L22 26L20 26L20 23L19 23L19 21L20 21L20 20L22 20L22 19L23 19L23 18L22 18L22 19L20 19L20 18L21 18L21 17L22 17L22 16L23 16L23 14L22 14L22 15L21 15L21 14L20 14L20 13L22 13L22 12L20 12L20 11L19 11L19 12L20 12L20 13L19 13L19 14L18 14L18 11L17 11L17 10L16 10L16 13L14 13L14 10L13 10L13 11L11 11L11 10L12 10L12 9L13 9L13 8L14 8L14 6ZM16 6L16 7L17 7L17 6ZM19 6L19 7L20 7L20 6ZM25 8L25 9L26 9L26 11L27 11L27 12L28 12L28 11L29 11L29 8L28 8L28 10L27 10L27 9L26 9L26 8ZM5 10L5 11L7 11L7 12L4 12L4 14L5 14L5 13L7 13L7 12L8 12L8 11L7 11L7 10ZM21 10L21 11L23 11L23 12L24 12L24 11L23 11L23 10ZM16 13L16 17L15 17L15 18L14 18L14 21L15 21L15 18L16 18L16 17L17 17L17 15L18 15L18 17L19 17L19 18L18 18L18 19L19 19L19 18L20 18L20 17L21 17L21 15L18 15L18 14L17 14L17 13ZM1 14L1 15L2 15L2 14ZM6 15L6 16L8 16L8 15ZM19 16L19 17L20 17L20 16ZM25 16L25 17L26 17L26 16ZM6 17L6 18L7 18L7 17ZM0 18L0 19L1 19L1 20L0 20L0 21L1 21L1 20L2 20L2 21L3 21L3 20L4 20L4 19L1 19L1 18ZM27 20L27 21L28 21L28 22L26 22L26 23L29 23L29 20ZM21 21L21 24L24 24L24 21ZM22 22L22 23L23 23L23 22ZM8 23L8 25L9 25L9 23ZM15 25L15 26L16 26L16 25ZM28 26L28 27L27 27L27 29L29 29L29 28L28 28L28 27L29 27L29 26ZM0 0L0 7L7 7L7 0ZM1 1L1 6L6 6L6 1ZM2 2L2 5L5 5L5 2ZM22 0L22 7L29 7L29 0ZM23 1L23 6L28 6L28 1ZM24 2L24 5L27 5L27 2ZM0 22L0 29L7 29L7 22ZM1 23L1 28L6 28L6 23ZM2 24L2 27L5 27L5 24Z" fill="#000000"/></g></g></svg>
