<?xml version="1.0" encoding="UTF-8"?>
<svg xmlns="http://www.w3.org/2000/svg" version="1.1" width="128" height="128" viewBox="0 0 128 128"><rect x="0" y="0" width="128" height="128" fill="#ffffff"/><g transform="scale(4.414)"><g transform="translate(0,0)"><path fill-rule="evenodd" d="M13 0L13 1L10 1L10 2L9 2L9 4L8 4L8 5L9 5L9 6L8 6L8 8L6 8L6 9L5 9L5 10L4 10L4 11L3 11L3 10L2 10L2 11L1 11L1 9L0 9L0 11L1 11L1 13L3 13L3 14L4 14L4 15L2 15L2 17L1 17L1 18L0 18L0 19L1 19L1 18L2 18L2 20L1 20L1 21L2 21L2 20L4 20L4 19L5 19L5 21L8 21L8 23L9 23L9 25L8 25L8 27L9 27L9 28L10 28L10 29L11 29L11 28L10 28L10 27L13 27L13 28L14 28L14 29L17 29L17 27L18 27L18 29L19 29L19 28L20 28L20 29L24 29L24 28L26 28L26 27L27 27L27 29L28 29L28 27L29 27L29 26L28 26L28 25L29 25L29 23L28 23L28 22L29 22L29 20L28 20L28 19L26 19L26 18L25 18L25 19L26 19L26 20L24 20L24 17L26 17L26 14L27 14L27 16L28 16L28 15L29 15L29 11L28 11L28 10L29 10L29 9L28 9L28 10L27 10L27 9L25 9L25 8L24 8L24 9L23 9L23 8L21 8L21 6L20 6L20 4L19 4L19 5L15 5L15 4L16 4L16 3L17 3L17 4L18 4L18 3L20 3L20 2L18 2L18 1L17 1L17 0L16 0L16 3L15 3L15 4L11 4L11 5L9 5L9 4L10 4L10 2L11 2L11 3L12 3L12 2L15 2L15 0ZM17 2L17 3L18 3L18 2ZM13 5L13 12L12 12L12 9L11 9L11 8L10 8L10 6L9 6L9 10L10 10L10 9L11 9L11 12L12 12L12 13L13 13L13 14L12 14L12 15L11 15L11 13L10 13L10 11L9 11L9 12L8 12L8 13L5 13L5 12L4 12L4 13L5 13L5 14L7 14L7 15L4 15L4 17L3 17L3 19L4 19L4 18L5 18L5 19L6 19L6 20L7 20L7 19L6 19L6 18L8 18L8 21L9 21L9 19L10 19L10 20L11 20L11 19L10 19L10 18L8 18L8 17L10 17L10 16L8 16L8 17L5 17L5 16L7 16L7 15L9 15L9 14L10 14L10 15L11 15L11 18L12 18L12 19L14 19L14 21L13 21L13 20L12 20L12 21L11 21L11 24L10 24L10 26L9 26L9 27L10 27L10 26L11 26L11 25L12 25L12 26L13 26L13 27L15 27L15 28L16 28L16 27L17 27L17 26L13 26L13 25L15 25L15 24L14 24L14 23L12 23L12 22L15 22L15 23L17 23L17 24L16 24L16 25L17 25L17 24L18 24L18 23L17 23L17 22L15 22L15 18L17 18L17 19L18 19L18 21L19 21L19 22L20 22L20 19L22 19L22 18L23 18L23 16L24 16L24 15L23 15L23 14L22 14L22 13L23 13L23 11L24 11L24 10L23 10L23 11L22 11L22 10L21 10L21 12L22 12L22 13L20 13L20 14L22 14L22 15L21 15L21 17L20 17L20 15L19 15L19 14L17 14L17 16L16 16L16 14L14 14L14 13L16 13L16 11L18 11L18 10L17 10L17 9L18 9L18 8L19 8L19 10L20 10L20 9L21 9L21 8L20 8L20 6L19 6L19 7L18 7L18 6L17 6L17 7L16 7L16 6L15 6L15 7L14 7L14 5ZM11 6L11 7L12 7L12 6ZM15 7L15 8L16 8L16 9L15 9L15 10L14 10L14 12L15 12L15 11L16 11L16 9L17 9L17 8L16 8L16 7ZM2 8L2 9L4 9L4 8ZM6 9L6 10L5 10L5 11L6 11L6 12L7 12L7 11L6 11L6 10L7 10L7 9ZM25 10L25 12L24 12L24 14L25 14L25 13L26 13L26 12L28 12L28 11L26 11L26 10ZM2 11L2 12L3 12L3 11ZM19 11L19 12L20 12L20 11ZM17 12L17 13L18 13L18 12ZM27 13L27 14L28 14L28 13ZM0 14L0 16L1 16L1 14ZM13 14L13 16L12 16L12 17L15 17L15 16L14 16L14 14ZM18 15L18 17L17 17L17 18L18 18L18 19L19 19L19 18L20 18L20 17L19 17L19 15ZM18 17L18 18L19 18L19 17ZM21 21L21 24L24 24L24 21ZM26 21L26 22L25 22L25 24L27 24L27 25L26 25L26 26L27 26L27 27L28 27L28 26L27 26L27 25L28 25L28 24L27 24L27 23L26 23L26 22L28 22L28 21ZM22 22L22 23L23 23L23 22ZM19 23L19 25L18 25L18 27L20 27L20 26L21 26L21 28L22 28L22 27L23 27L23 28L24 28L24 27L25 27L25 26L24 26L24 25L20 25L20 23ZM12 24L12 25L13 25L13 24ZM19 25L19 26L20 26L20 25ZM23 26L23 27L24 27L24 26ZM0 0L0 7L7 7L7 0ZM1 1L1 6L6 6L6 1ZM2 2L2 5L5 5L5 2ZM22 0L22 7L29 7L29 0ZM23 1L23 6L28 6L28 1ZM24 2L24 5L27 5L27 2ZM0 22L0 29L7 29L7 22ZM1 23L1 28L6 28L6 23ZM2 24L2 27L5 27L5 24Z" fill="#000000"/></g></g></svg>
