<svg width="14" height="14" viewBox="0 0 14 14" fill="none" xmlns="http://www.w3.org/2000/svg">
<path d="M1.66657 6.16655H10.9749L6.90823 2.09989C6.58323 1.77489 6.58323 1.24155 6.90823 0.916555C6.98533 0.839302 7.0769 0.778012 7.17771 0.736194C7.27852 0.694376 7.38659 0.672852 7.49573 0.672852C7.60487 0.672852 7.71294 0.694376 7.81375 0.736194C7.91456 0.778012 8.00614 0.839302 8.08323 0.916555L13.5749 6.40822C13.6522 6.48532 13.7134 6.57689 13.7553 6.6777C13.7971 6.77851 13.8186 6.88658 13.8186 6.99572C13.8186 7.10486 13.7971 7.21293 13.7553 7.31374C13.7134 7.41455 13.6522 7.50613 13.5749 7.58322L8.08323 13.0749C8.00608 13.152 7.91449 13.2132 7.81369 13.255C7.71288 13.2967 7.60484 13.3182 7.49573 13.3182C7.38662 13.3182 7.27858 13.2967 7.17778 13.255C7.07698 13.2132 6.98538 13.152 6.90823 13.0749C6.83108 12.9977 6.76988 12.9061 6.72813 12.8053C6.68637 12.7045 6.66488 12.5965 6.66488 12.4874C6.66488 12.3783 6.68637 12.2702 6.72813 12.1694C6.76988 12.0686 6.83108 11.977 6.90823 11.8999L10.9749 7.83322H1.66657C1.20823 7.83322 0.833233 7.45822 0.833233 6.99989C0.833233 6.54155 1.20823 6.16655 1.66657 6.16655Z" fill="#9747FF"/>
</svg>
